<svg width="30" height="21" viewBox="0 0 30 21" fill="none" xmlns="http://www.w3.org/2000/svg">
<g clip-path="url(#clip0_278_916)">
<path d="M0 0H30V21H0V0Z" fill="#009440"/>
<path d="M2.55005 10.5L15 18.45L27.4501 10.5L15 2.54999L2.55005 10.5Z" fill="#FFCB00"/>
<path d="M15 15.75C17.8995 15.75 20.25 13.3995 20.25 10.5C20.25 7.60051 17.8995 5.25 15 5.25C12.1005 5.25 9.75 7.60051 9.75 10.5C9.75 13.3995 12.1005 15.75 15 15.75Z" fill="#302681"/>
<mask id="mask0_278_916" style="mask-type:luminance" maskUnits="userSpaceOnUse" x="9" y="5" width="12" height="11">
<path d="M15 15.75C17.8995 15.75 20.25 13.3995 20.25 10.5C20.25 7.60051 17.8995 5.25 15 5.25C12.1005 5.25 9.75 7.60051 9.75 10.5C9.75 13.3995 12.1005 15.75 15 15.75Z" fill="white"/>
</mask>
<g mask="url(#mask0_278_916)">
<path d="M-0.75 21C-0.75 17.6185 0.5933 14.3755 2.98439 11.9844C5.37548 9.5933 8.61849 8.25 12 8.25C15.3815 8.25 18.6245 9.5933 21.0156 11.9844C23.4067 14.3755 24.75 17.6185 24.75 21H24C24 17.8174 22.7357 14.7652 20.4853 12.5147C18.2348 10.2643 15.1826 9 12 9C8.8174 9 5.76515 10.2643 3.51472 12.5147C1.26428 14.7652 -1.19209e-07 17.8174 -1.19209e-07 21H-0.75Z" fill="white"/>
</g>
<path fill-rule="evenodd" clip-rule="evenodd" d="M10.5223 8.96537C10.5815 8.9581 10.6351 8.92498 10.6713 8.87331C10.7075 8.82163 10.7232 8.75563 10.7152 8.68982C10.7071 8.62401 10.6758 8.56378 10.6282 8.52239C10.5806 8.481 10.5206 8.46183 10.4614 8.4691C10.4021 8.47637 10.3485 8.50949 10.3124 8.56117C10.2762 8.61284 10.2604 8.67885 10.2685 8.74466C10.2766 8.81047 10.3079 8.87069 10.3555 8.91209C10.4031 8.95348 10.4631 8.97265 10.5223 8.96537ZM10.511 8.87321C10.5458 8.86894 10.5771 8.84841 10.5981 8.81614C10.6191 8.78387 10.6281 8.7425 10.623 8.70113C10.6179 8.65977 10.5992 8.62179 10.571 8.59556C10.5428 8.56933 10.5075 8.55699 10.4727 8.56127C10.4379 8.56554 10.4065 8.58607 10.3855 8.61834C10.3645 8.65061 10.3556 8.69197 10.3607 8.73334C10.3657 8.77471 10.3844 8.81268 10.4126 8.83891C10.4408 8.86514 10.4762 8.87748 10.511 8.87321Z" fill="#009440"/>
<path fill-rule="evenodd" clip-rule="evenodd" d="M10.9297 8.92023L11.0223 8.91375L11.0093 8.72849L11.2088 8.71454C11.2504 8.71163 11.2891 8.69233 11.3165 8.66087C11.3438 8.62942 11.3575 8.58839 11.3546 8.54682C11.3517 8.50524 11.3324 8.46652 11.301 8.43918C11.2695 8.41184 11.2285 8.39811 11.1869 8.40102L10.9019 8.42095L10.9297 8.92023ZM11.0029 8.63586L11.1952 8.62241C11.2122 8.62122 11.2281 8.61332 11.2393 8.60045C11.2505 8.58759 11.2561 8.5708 11.2549 8.55379C11.2537 8.53678 11.2458 8.52095 11.2329 8.50976C11.2201 8.49857 11.2033 8.49296 11.1863 8.49415L10.9939 8.5076L11.0029 8.63586Z" fill="#009440"/>
<path d="M11.3537 8.89058C11.3487 8.81932 11.3377 8.66256 11.2308 8.67004L11.0955 8.6795C11.2522 8.66854 11.2632 8.8253 11.2682 8.89656" fill="#009440"/>
<path fill-rule="evenodd" clip-rule="evenodd" d="M11.5634 8.88078L11.7991 8.87667C11.8272 8.87618 11.855 8.87015 11.8808 8.85893C11.9066 8.84771 11.9299 8.83151 11.9495 8.81127C11.969 8.79103 11.9844 8.76713 11.9947 8.74095C12.005 8.71477 12.0101 8.68681 12.0096 8.65868L12.0084 8.58726C12.0079 8.55912 12.0018 8.53136 11.9906 8.50555C11.9794 8.47975 11.9632 8.4564 11.943 8.43685C11.9227 8.41731 11.8988 8.40194 11.8726 8.39162C11.8465 8.38131 11.8185 8.37625 11.7904 8.37675L11.5547 8.38086L11.5634 8.88078ZM11.6546 8.78632L11.7903 8.78395C11.8263 8.78332 11.8606 8.76842 11.8856 8.74253C11.9106 8.71664 11.9243 8.68188 11.9237 8.64589L11.9229 8.60304C11.9223 8.56705 11.9074 8.53279 11.8815 8.50778C11.8556 8.48278 11.8208 8.46909 11.7848 8.46971L11.6492 8.47208L11.6546 8.78632Z" fill="#009440"/>
<path d="M12.1982 8.87451L12.648 8.89022L12.6512 8.79742L12.2872 8.7847L12.2916 8.65621L12.5772 8.66618L12.5802 8.58052L12.2946 8.57055L12.2981 8.47061L12.6408 8.48257L12.644 8.38977L12.2157 8.37482L12.1982 8.87451Z" fill="#009440"/>
<path d="M12.8325 8.90154L12.9179 8.90901L12.9478 8.56746L13.0175 8.91773L13.0958 8.92457L13.2253 8.59174L13.1954 8.93329L13.2808 8.94076L13.3244 8.44266L13.1999 8.43177L13.0704 8.7646L13.0006 8.41434L12.8761 8.40344L12.8325 8.90154Z" fill="#009440"/>
<path d="M13.8685 9.01839L14.2381 9.0819L14.2526 8.99742L13.9675 8.94843L13.9868 8.83579L14.2192 8.87571L14.2337 8.79124L14.0014 8.75132L14.0147 8.67388L14.291 8.72136L14.3055 8.63688L13.9447 8.57489L13.8685 9.01839Z" fill="#009440"/>
<path fill-rule="evenodd" clip-rule="evenodd" d="M14.8179 9.20484L14.9078 9.22809L14.9543 9.04829L15.148 9.09836C15.1883 9.1088 15.2311 9.10278 15.2671 9.08163C15.303 9.06047 15.329 9.02592 15.3394 8.98557C15.3499 8.94522 15.3439 8.90238 15.3227 8.86647C15.3015 8.83056 15.267 8.80452 15.2266 8.79409L14.95 8.72255L14.8179 9.20484ZM14.9776 8.95839L15.1643 9.00668C15.1808 9.01095 15.1983 9.00848 15.213 8.99983C15.2277 8.99118 15.2384 8.97704 15.2426 8.96053C15.2469 8.94403 15.2444 8.9265 15.2358 8.91181C15.2271 8.89712 15.213 8.88647 15.1965 8.8822L15.0098 8.83391L14.9776 8.95839Z" fill="#009440"/>
<path fill-rule="evenodd" clip-rule="evenodd" d="M15.4314 9.36852L15.52 9.39644L15.5758 9.21932L15.7666 9.27947C15.8063 9.292 15.8494 9.28823 15.8864 9.26898C15.9234 9.24974 15.9512 9.2166 15.9637 9.17685C15.9762 9.1371 15.9725 9.094 15.9532 9.05704C15.934 9.02007 15.9008 8.99226 15.8611 8.97973L15.5886 8.89381L15.4314 9.36852ZM15.6038 9.13077L15.7877 9.18876C15.804 9.19389 15.8216 9.19234 15.8367 9.18447C15.8518 9.1766 15.8632 9.16304 15.8683 9.14678C15.8735 9.13052 15.8719 9.11289 15.864 9.09776C15.8562 9.08264 15.8426 9.07126 15.8264 9.06614L15.6424 9.00814L15.6038 9.13077Z" fill="#009440"/>
<path d="M15.8367 9.49634C15.8582 9.42822 15.9054 9.27835 15.8033 9.24613L15.6738 9.20532C15.8237 9.25258 15.7764 9.40245 15.755 9.47057" fill="#009440"/>
<path fill-rule="evenodd" clip-rule="evenodd" d="M16.2462 9.64284C16.3021 9.66373 16.3649 9.65911 16.4209 9.62997C16.4768 9.60083 16.5213 9.54957 16.5445 9.48746C16.5677 9.42536 16.5678 9.3575 16.5447 9.2988C16.5216 9.24011 16.4772 9.1954 16.4213 9.1745C16.3654 9.1536 16.3026 9.15823 16.2467 9.18737C16.1907 9.21651 16.1462 9.26777 16.123 9.32987C16.0998 9.39198 16.0997 9.45984 16.1228 9.51853C16.1459 9.57722 16.1903 9.62194 16.2462 9.64284ZM16.2787 9.55586C16.3116 9.56813 16.3488 9.5644 16.3824 9.54547C16.4159 9.52655 16.4429 9.49398 16.4575 9.45495C16.4721 9.41591 16.4731 9.37359 16.4602 9.33731C16.4473 9.30103 16.4216 9.27375 16.3888 9.26148C16.356 9.2492 16.3187 9.25294 16.2852 9.27186C16.2516 9.29079 16.2246 9.32335 16.21 9.36239C16.1954 9.40143 16.1944 9.44374 16.2073 9.48002C16.2202 9.51631 16.2459 9.54359 16.2787 9.55586Z" fill="#009440"/>
<mask id="mask1_278_916" style="mask-type:luminance" maskUnits="userSpaceOnUse" x="16" y="9" width="2" height="1">
<path d="M16.6285 9.79093L16.8279 9.3324L17.2406 9.51183L17.0412 9.97036L16.6285 9.79093ZM16.9687 9.57278L16.9345 9.65138L17.1409 9.7411L17.175 9.66249L16.9687 9.57278Z" fill="white"/>
</mask>
<g mask="url(#mask1_278_916)">
<path fill-rule="evenodd" clip-rule="evenodd" d="M16.8348 9.88065C16.8896 9.90444 16.9526 9.90311 17.0099 9.87694C17.0673 9.85077 17.1144 9.8019 17.1409 9.7411C17.1673 9.68029 17.1709 9.61253 17.1509 9.55271C17.1309 9.49289 17.0889 9.44591 17.0342 9.42212C16.9795 9.39832 16.9165 9.39966 16.8591 9.42583C16.8017 9.452 16.7546 9.50086 16.7282 9.56166C16.7018 9.62247 16.6981 9.69023 16.7181 9.75006C16.7381 9.80988 16.7801 9.85685 16.8348 9.88065ZM16.8719 9.79549C16.904 9.80947 16.9414 9.80768 16.9759 9.79054C17.0104 9.7734 17.0391 9.74229 17.0557 9.70407C17.0723 9.66585 17.0755 9.62365 17.0645 9.58674C17.0536 9.54983 17.0293 9.52125 16.9972 9.50727C16.9651 9.4933 16.9276 9.49508 16.8932 9.51222C16.8587 9.52937 16.83 9.56047 16.8133 9.59869C16.7967 9.63691 16.7936 9.67912 16.8045 9.71602C16.8155 9.75293 16.8397 9.78152 16.8719 9.79549Z" fill="#009440"/>
</g>
<path d="M16.9673 9.66565L17.1409 9.74113L17.1124 9.80663L16.9388 9.73115L16.9673 9.66565Z" fill="#009440"/>
<path d="M17.0753 9.71265L17.1408 9.74113L17.0411 9.97039L16.9756 9.94191L17.0753 9.71265Z" fill="#009440"/>
<path fill-rule="evenodd" clip-rule="evenodd" d="M17.2088 10.0485L17.2919 10.09L17.3748 9.92377L17.5537 10.013C17.591 10.0316 17.6342 10.0346 17.6737 10.0214C17.7132 10.0082 17.7459 9.97979 17.7645 9.9425C17.7831 9.9052 17.7861 9.86204 17.7729 9.82252C17.7597 9.78299 17.7313 9.75034 17.694 9.73175L17.4383 9.60426L17.2088 10.0485ZM17.4162 9.84067L17.5888 9.92672C17.604 9.93433 17.6217 9.93557 17.6379 9.93016C17.654 9.92475 17.6674 9.91313 17.675 9.89788C17.6826 9.88262 17.6838 9.86496 17.6784 9.84879C17.673 9.83263 17.6614 9.81927 17.6461 9.81166L17.4736 9.72561L17.4162 9.84067Z" fill="#009440"/>
<path d="M17.5891 10.2382C17.621 10.1742 17.6911 10.0336 17.5952 9.98579L17.4738 9.92523C17.6144 9.99535 17.5443 10.136 17.5124 10.1999" fill="#009440"/>
<path d="M17.7748 10.3361L18.1664 10.5577L18.2122 10.4769L17.8951 10.2975L17.9584 10.1856L18.2071 10.3263L18.2493 10.2517L18.0006 10.111L18.0499 10.024L18.3483 10.1928L18.394 10.112L18.021 9.90094L17.7748 10.3361Z" fill="#009440"/>
<path d="M18.5043 10.5809C18.4774 10.6231 18.5046 10.6701 18.5649 10.7085C18.6251 10.7468 18.6661 10.7454 18.6835 10.7184C18.7382 10.6325 18.422 10.5073 18.5194 10.3577C18.6035 10.2291 18.7472 10.3292 18.8014 10.3637C18.8557 10.3983 18.9427 10.4876 18.875 10.5906L18.7831 10.532C18.8119 10.4868 18.7803 10.4434 18.7321 10.4127C18.6854 10.383 18.6475 10.3694 18.6197 10.4131C18.5731 10.4829 18.8829 10.6147 18.788 10.7638C18.7179 10.8737 18.596 10.8257 18.5147 10.7739C18.4454 10.7298 18.3419 10.6257 18.4094 10.5205L18.5043 10.5809Z" fill="#009440"/>
<path d="M19.0407 10.9356C19.0116 10.9763 19.0364 11.0246 19.0945 11.0661C19.1527 11.1076 19.1937 11.1083 19.2124 11.0822C19.2715 10.9993 18.9623 10.8578 19.0675 10.7134C19.1581 10.5894 19.2964 10.6969 19.3488 10.7342C19.4011 10.7715 19.4834 10.8653 19.4104 10.9646L19.3217 10.9013C19.3528 10.8577 19.3235 10.8127 19.277 10.7795C19.2319 10.7474 19.1948 10.7318 19.1647 10.774C19.1145 10.8413 19.417 10.9891 19.3144 11.133C19.2387 11.2391 19.1195 11.1848 19.041 11.1288C18.9741 11.0811 18.8762 10.9718 18.9491 10.8702L19.0407 10.9356Z" fill="#009440"/>
<path fill-rule="evenodd" clip-rule="evenodd" d="M19.5479 11.5109C19.5946 11.548 19.6558 11.563 19.718 11.5526C19.7802 11.5422 19.8384 11.5072 19.8797 11.4553C19.9209 11.4034 19.942 11.3389 19.9381 11.2759C19.9343 11.2129 19.9059 11.1567 19.8592 11.1196C19.8125 11.0824 19.7513 11.0674 19.6891 11.0778C19.6269 11.0882 19.5688 11.1233 19.5275 11.1751C19.4862 11.227 19.4652 11.2916 19.469 11.3545C19.4728 11.4175 19.5012 11.4737 19.5479 11.5109ZM19.6057 11.4382C19.6332 11.46 19.6698 11.468 19.7075 11.4603C19.7453 11.4527 19.781 11.4301 19.807 11.3975C19.8329 11.3649 19.8469 11.3249 19.8459 11.2864C19.8448 11.2479 19.8288 11.214 19.8014 11.1922C19.774 11.1704 19.7373 11.1624 19.6996 11.1701C19.6619 11.1777 19.6261 11.2003 19.6001 11.2329C19.5742 11.2656 19.5602 11.3055 19.5613 11.344C19.5623 11.3825 19.5783 11.4164 19.6057 11.4382Z" fill="#009440"/>
<path d="M10.7142 9.33215L10.6447 9.54614L10.7517 9.58091" fill="white"/>
<path d="M10.7142 9.33215L10.7838 9.54614L10.6768 9.58091" fill="white"/>
<path d="M10.9283 9.48761H10.7033V9.60011" fill="white"/>
<path d="M10.9283 9.48761L10.7463 9.61986L10.6802 9.52885" fill="white"/>
<path d="M10.5004 9.48761L10.6824 9.61986L10.7485 9.52885" fill="white"/>
<path d="M10.5004 9.48761H10.7254V9.60011" fill="white"/>
<path d="M10.8466 9.73914L10.777 9.52515L10.67 9.55991" fill="white"/>
<path d="M10.8466 9.73914L10.6645 9.60688L10.7307 9.51587" fill="white"/>
<path d="M10.5822 9.7392L10.7642 9.60695L10.6981 9.51593" fill="white"/>
<path d="M10.5822 9.7392L10.6517 9.52521L10.7587 9.55997" fill="white"/>
<path d="M11.1785 11.5393L11.1089 11.7533L11.2159 11.7881" fill="white"/>
<path d="M11.1785 11.5393L11.248 11.7533L11.141 11.7881" fill="white"/>
<path d="M11.3926 11.6948H11.1676V11.8073" fill="white"/>
<path d="M11.3926 11.6948L11.2105 11.827L11.1444 11.736" fill="white"/>
<path d="M10.9646 11.6948L11.1466 11.827L11.2128 11.736" fill="white"/>
<path d="M10.9646 11.6948H11.1896V11.8073" fill="white"/>
<path d="M11.3108 11.9463L11.2413 11.7323L11.1343 11.7671" fill="white"/>
<path d="M11.3108 11.9463L11.1288 11.814L11.1949 11.723" fill="white"/>
<path d="M11.0464 11.9464L11.2284 11.8141L11.1623 11.7231" fill="white"/>
<path d="M11.0464 11.9464L11.1159 11.7324L11.2229 11.7671" fill="white"/>
<path d="M10.5356 12.0482L10.4777 12.2265L10.5669 12.2555" fill="white"/>
<path d="M10.5356 12.0482L10.5936 12.2265L10.5044 12.2555" fill="white"/>
<path d="M10.7141 12.1777H10.5266V12.2715" fill="white"/>
<path d="M10.7141 12.1777L10.5624 12.2879L10.5073 12.2121" fill="white"/>
<path d="M10.3574 12.1778L10.5091 12.288L10.5642 12.2122" fill="white"/>
<path d="M10.3574 12.1778H10.5449V12.2715" fill="white"/>
<path d="M10.6459 12.3875L10.5879 12.2091L10.4988 12.2381" fill="white"/>
<path d="M10.6459 12.3875L10.4942 12.2772L10.5493 12.2014" fill="white"/>
<path d="M10.4255 12.3874L10.5772 12.2772L10.5221 12.2013" fill="white"/>
<path d="M10.4255 12.3874L10.4835 12.2091L10.5726 12.238" fill="white"/>
<path d="M11.6927 11.3357L11.6596 11.4376L11.7106 11.4541" fill="white"/>
<path d="M11.6927 11.3357L11.7259 11.4376L11.6749 11.4541" fill="white"/>
<path d="M11.7948 11.4097H11.6877V11.4633" fill="white"/>
<path d="M11.7948 11.4097L11.7081 11.4727L11.6766 11.4294" fill="white"/>
<path d="M11.5909 11.4097L11.6776 11.4727L11.7091 11.4294" fill="white"/>
<path d="M11.5909 11.4097H11.6981V11.4633" fill="white"/>
<path d="M11.7557 11.5295L11.7226 11.4276L11.6717 11.4442" fill="white"/>
<path d="M11.7557 11.5295L11.6691 11.4666L11.7005 11.4232" fill="white"/>
<path d="M11.6298 11.5295L11.7164 11.4665L11.685 11.4232" fill="white"/>
<path d="M11.6298 11.5295L11.6629 11.4276L11.7138 11.4441" fill="white"/>
<path d="M12.2714 12.0982L12.2134 12.2765L12.3026 12.3055" fill="white"/>
<path d="M12.2714 12.0982L12.3293 12.2765L12.2401 12.3055" fill="white"/>
<path d="M12.4498 12.2277H12.2623V12.3215" fill="white"/>
<path d="M12.4498 12.2277L12.2981 12.3379L12.243 12.2621" fill="white"/>
<path d="M12.0931 12.2278L12.2448 12.338L12.2999 12.2621" fill="white"/>
<path d="M12.0931 12.2278H12.2806V12.3215" fill="white"/>
<path d="M12.3816 12.4374L12.3237 12.2591L12.2345 12.2881" fill="white"/>
<path d="M12.3816 12.4374L12.2299 12.3272L12.285 12.2514" fill="white"/>
<path d="M12.1613 12.4374L12.3129 12.3272L12.2578 12.2513" fill="white"/>
<path d="M12.1613 12.4374L12.2192 12.2591L12.3084 12.288" fill="white"/>
<path d="M12.1143 12.6572L12.0679 12.7998L12.1392 12.823" fill="white"/>
<path d="M12.1143 12.6572L12.1606 12.7998L12.0893 12.823" fill="white"/>
<path d="M12.257 12.7608H12.107V12.8358" fill="white"/>
<path d="M12.257 12.7608L12.1356 12.849L12.0915 12.7883" fill="white"/>
<path d="M11.9717 12.7609L12.093 12.849L12.1371 12.7884" fill="white"/>
<path d="M11.9717 12.7609H12.1217V12.8359" fill="white"/>
<path d="M12.2024 12.9285L12.156 12.7859L12.0847 12.809" fill="white"/>
<path d="M12.2024 12.9285L12.081 12.8404L12.1251 12.7797" fill="white"/>
<path d="M12.0261 12.9285L12.1475 12.8404L12.1034 12.7797" fill="white"/>
<path d="M12.0261 12.9285L12.0725 12.7859L12.1438 12.809" fill="white"/>
<path d="M16.6284 8.64642L16.5589 8.86041L16.6659 8.89518" fill="white"/>
<path d="M16.6284 8.64642L16.6979 8.86041L16.591 8.89518" fill="white"/>
<path d="M16.8425 8.80188H16.6175V8.91438" fill="white"/>
<path d="M16.8425 8.80188L16.6605 8.93413L16.5944 8.84312" fill="white"/>
<path d="M16.4146 8.80188L16.5966 8.93413L16.6627 8.84312" fill="white"/>
<path d="M16.4146 8.80188H16.6396V8.91438" fill="white"/>
<path d="M16.7607 9.05341L16.6912 8.83942L16.5842 8.87418" fill="white"/>
<path d="M16.7607 9.05341L16.5787 8.92115L16.6448 8.83014" fill="white"/>
<path d="M16.4963 9.05347L16.6784 8.92122L16.6122 8.8302" fill="white"/>
<path d="M16.4963 9.05347L16.5659 8.83948L16.6729 8.87424" fill="white"/>
<path d="M18.6785 12.1179L18.6089 12.3318L18.7159 12.3666" fill="white"/>
<path d="M18.6785 12.1179L18.748 12.3318L18.641 12.3666" fill="white"/>
<path d="M18.8926 12.2733H18.6676V12.3858" fill="white"/>
<path d="M18.8926 12.2733L18.7105 12.4056L18.6444 12.3146" fill="white"/>
<path d="M18.4646 12.2733L18.6466 12.4056L18.7128 12.3146" fill="white"/>
<path d="M18.4646 12.2733H18.6896V12.3858" fill="white"/>
<path d="M18.8108 12.5248L18.7413 12.3109L18.6343 12.3456" fill="white"/>
<path d="M18.8108 12.5248L18.6288 12.3926L18.6949 12.3016" fill="white"/>
<path d="M18.5464 12.5249L18.7284 12.3927L18.6623 12.3016" fill="white"/>
<path d="M18.5464 12.5249L18.6159 12.3109L18.7229 12.3457" fill="white"/>
<path d="M19.4071 12.2429L19.3608 12.3855L19.4321 12.4087" fill="white"/>
<path d="M19.4071 12.2429L19.4535 12.3855L19.3821 12.4087" fill="white"/>
<path d="M19.5498 12.3465H19.3998V12.4215" fill="white"/>
<path d="M19.5498 12.3465L19.4285 12.4347L19.3844 12.374" fill="white"/>
<path d="M19.2645 12.3466L19.3859 12.4347L19.43 12.374" fill="white"/>
<path d="M19.2645 12.3466H19.4145V12.4216" fill="white"/>
<path d="M19.4952 12.5142L19.4489 12.3716L19.3776 12.3947" fill="white"/>
<path d="M19.4952 12.5142L19.3739 12.4261L19.418 12.3654" fill="white"/>
<path d="M19.319 12.5142L19.4403 12.4261L19.3962 12.3654" fill="white"/>
<path d="M19.319 12.5142L19.3653 12.3716L19.4367 12.3947" fill="white"/>
<path d="M18.8928 12.6196L18.8349 12.798L18.924 12.8269" fill="white"/>
<path d="M18.8928 12.6196L18.9508 12.798L18.8616 12.8269" fill="white"/>
<path d="M19.0713 12.7491H18.8838V12.8429" fill="white"/>
<path d="M19.0713 12.7491L18.9196 12.8594L18.8645 12.7835" fill="white"/>
<path d="M18.7146 12.7492L18.8663 12.8594L18.9214 12.7836" fill="white"/>
<path d="M18.7146 12.7492H18.9021V12.843" fill="white"/>
<path d="M19.0031 12.9589L18.9451 12.7805L18.8559 12.8095" fill="white"/>
<path d="M19.0031 12.9589L18.8514 12.8487L18.9065 12.7728" fill="white"/>
<path d="M18.7827 12.9588L18.9344 12.8486L18.8793 12.7727" fill="white"/>
<path d="M18.7827 12.9588L18.8407 12.7805L18.9298 12.8094" fill="white"/>
<path d="M17.6285 13.7197L17.5706 13.898L17.6598 13.927" fill="white"/>
<path d="M17.6285 13.7197L17.6865 13.898L17.5973 13.927" fill="white"/>
<path d="M17.807 13.8492H17.6195V13.9429" fill="white"/>
<path d="M17.807 13.8492L17.6553 13.9594L17.6002 13.8835" fill="white"/>
<path d="M17.4503 13.8492L17.602 13.9595L17.6571 13.8836" fill="white"/>
<path d="M17.4503 13.8492H17.6378V13.943" fill="white"/>
<path d="M17.7388 14.0589L17.6808 13.8806L17.5917 13.9095" fill="white"/>
<path d="M17.7388 14.0589L17.5871 13.9487L17.6422 13.8728" fill="white"/>
<path d="M17.5184 14.0588L17.6701 13.9486L17.615 13.8728" fill="white"/>
<path d="M17.5184 14.0588L17.5764 13.8805L17.6655 13.9095" fill="white"/>
<path d="M17.6215 14.2857L17.5751 14.4284L17.6464 14.4515" fill="white"/>
<path d="M17.6215 14.2857L17.6678 14.4284L17.5965 14.4515" fill="white"/>
<path d="M17.7642 14.3893H17.6142V14.4643" fill="white"/>
<path d="M17.7642 14.3893L17.6428 14.4775L17.5987 14.4168" fill="white"/>
<path d="M17.4789 14.3894L17.6002 14.4776L17.6443 14.4169" fill="white"/>
<path d="M17.4789 14.3894H17.6289V14.4644" fill="white"/>
<path d="M17.7096 14.5571L17.6632 14.4144L17.5919 14.4376" fill="white"/>
<path d="M17.7096 14.5571L17.5882 14.4689L17.6323 14.4082" fill="white"/>
<path d="M17.5333 14.5571L17.6547 14.4689L17.6106 14.4082" fill="white"/>
<path d="M17.5333 14.5571L17.5797 14.4144L17.651 14.4376" fill="white"/>
<path d="M18.15 13.3428L18.1037 13.4855L18.175 13.5087" fill="white"/>
<path d="M18.15 13.3428L18.1964 13.4855L18.125 13.5087" fill="white"/>
<path d="M18.2927 13.4465H18.1427V13.5215" fill="white"/>
<path d="M18.2927 13.4465L18.1714 13.5346L18.1273 13.474" fill="white"/>
<path d="M18.0074 13.4465L18.1288 13.5347L18.1729 13.474" fill="white"/>
<path d="M18.0074 13.4465H18.1574V13.5215" fill="white"/>
<path d="M18.2382 13.6142L18.1918 13.4715L18.1205 13.4947" fill="white"/>
<path d="M18.2382 13.6142L18.1168 13.526L18.1609 13.4654" fill="white"/>
<path d="M18.0619 13.6142L18.1832 13.526L18.1392 13.4654" fill="white"/>
<path d="M18.0619 13.6142L18.1082 13.4715L18.1796 13.4947" fill="white"/>
<path d="M18.5714 13.0411L18.5135 13.2194L18.6026 13.2484" fill="white"/>
<path d="M18.5714 13.0411L18.6294 13.2194L18.5402 13.2484" fill="white"/>
<path d="M18.7499 13.1706H18.5624V13.2643" fill="white"/>
<path d="M18.7499 13.1706L18.5982 13.2808L18.5431 13.205" fill="white"/>
<path d="M18.3932 13.1707L18.5449 13.2809L18.6 13.205" fill="white"/>
<path d="M18.3932 13.1707H18.5807V13.2644" fill="white"/>
<path d="M18.6816 13.3803L18.6237 13.202L18.5345 13.231" fill="white"/>
<path d="M18.6816 13.3803L18.5299 13.2701L18.5851 13.1943" fill="white"/>
<path d="M18.4613 13.3802L18.613 13.27L18.5579 13.1942" fill="white"/>
<path d="M18.4613 13.3802L18.5192 13.2019L18.6084 13.2309" fill="white"/>
<path d="M17.6071 13.2429L17.5607 13.3855L17.632 13.4087" fill="white"/>
<path d="M17.6071 13.2429L17.6534 13.3855L17.5821 13.4087" fill="white"/>
<path d="M17.7498 13.3465H17.5998V13.4215" fill="white"/>
<path d="M17.7498 13.3465L17.6284 13.4347L17.5843 13.374" fill="white"/>
<path d="M17.4645 13.3466L17.5858 13.4347L17.6299 13.374" fill="white"/>
<path d="M17.4645 13.3466H17.6145V13.4216" fill="white"/>
<path d="M17.6952 13.5142L17.6488 13.3716L17.5775 13.3947" fill="white"/>
<path d="M17.6952 13.5142L17.5738 13.4261L17.6179 13.3654" fill="white"/>
<path d="M17.5189 13.5142L17.6403 13.4261L17.5962 13.3654" fill="white"/>
<path d="M17.5189 13.5142L17.5653 13.3716L17.6366 13.3947" fill="white"/>
<path d="M12.9999 10.5268L12.9419 10.7051L13.0311 10.7341" fill="white"/>
<path d="M12.9999 10.5268L13.0578 10.7051L12.9687 10.7341" fill="white"/>
<path d="M13.1783 10.6563H12.9908V10.7501" fill="white"/>
<path d="M13.1783 10.6563L13.0267 10.7665L12.9715 10.6907" fill="white"/>
<path d="M12.8217 10.6564L12.9733 10.7666L13.0285 10.6907" fill="white"/>
<path d="M12.8217 10.6564H13.0092V10.7501" fill="white"/>
<path d="M13.1101 10.866L13.0522 10.6877L12.963 10.7167" fill="white"/>
<path d="M13.1101 10.866L12.9584 10.7558L13.0135 10.68" fill="white"/>
<path d="M12.8898 10.866L13.0415 10.7558L12.9864 10.6799" fill="white"/>
<path d="M12.8898 10.866L12.9477 10.6876L13.0369 10.7166" fill="white"/>
<path d="M16.4286 10.0857L16.3822 10.2284L16.4536 10.2515" fill="white"/>
<path d="M16.4286 10.0857L16.4749 10.2284L16.4036 10.2515" fill="white"/>
<path d="M16.5713 10.1893H16.4213V10.2643" fill="white"/>
<path d="M16.5713 10.1893L16.4499 10.2775L16.4059 10.2168" fill="white"/>
<path d="M16.286 10.1894L16.4074 10.2776L16.4514 10.2169" fill="white"/>
<path d="M16.286 10.1894H16.436V10.2644" fill="white"/>
<path d="M16.5167 10.3571L16.4704 10.2144L16.399 10.2376" fill="white"/>
<path d="M16.5167 10.3571L16.3954 10.2689L16.4395 10.2082" fill="white"/>
<path d="M16.3405 10.3571L16.4618 10.2689L16.4177 10.2082" fill="white"/>
<path d="M16.3405 10.3571L16.3868 10.2144L16.4581 10.2376" fill="white"/>
<path d="M14.9999 12.6321L14.9303 12.8461L15.0373 12.8809" fill="white"/>
<path d="M14.9999 12.6321L15.0694 12.8461L14.9624 12.8809" fill="white"/>
<path d="M15.214 12.7876H14.989V12.9001" fill="white"/>
<path d="M15.214 12.7876L15.032 12.9198L14.9658 12.8288" fill="white"/>
<path d="M14.786 12.7876L14.968 12.9198L15.0342 12.8288" fill="white"/>
<path d="M14.786 12.7876H15.011V12.9001" fill="white"/>
<path d="M15.1322 13.0391L15.0627 12.8251L14.9557 12.8599" fill="white"/>
<path d="M15.1322 13.0391L14.9502 12.9069L15.0163 12.8159" fill="white"/>
<path d="M14.8678 13.0392L15.0498 12.9069L14.9837 12.8159" fill="white"/>
<path d="M14.8678 13.0392L14.9373 12.8252L15.0443 12.86" fill="white"/>
<path d="M15.6071 11.6268L15.5491 11.8051L15.6383 11.8341" fill="white"/>
<path d="M15.6071 11.6268L15.665 11.8051L15.5758 11.8341" fill="white"/>
<path d="M15.7855 11.7563H15.598V11.85" fill="white"/>
<path d="M15.7855 11.7563L15.6338 11.8665L15.5787 11.7907" fill="white"/>
<path d="M15.4288 11.7563L15.5805 11.8666L15.6356 11.7907" fill="white"/>
<path d="M15.4288 11.7563H15.6163V11.8501" fill="white"/>
<path d="M15.7173 11.966L15.6593 11.7877L15.5702 11.8167" fill="white"/>
<path d="M15.7173 11.966L15.5656 11.8558L15.6207 11.7799" fill="white"/>
<path d="M15.4969 11.9659L15.6486 11.8557L15.5935 11.7799" fill="white"/>
<path d="M15.4969 11.9659L15.5549 11.7876L15.6441 11.8166" fill="white"/>
<path d="M14.9999 11.1553L14.9419 11.3337L15.0311 11.3626" fill="white"/>
<path d="M14.9999 11.1553L15.0578 11.3337L14.9687 11.3626" fill="white"/>
<path d="M15.1783 11.2849H14.9908V11.3786" fill="white"/>
<path d="M15.1783 11.2849L15.0267 11.3951L14.9715 11.3192" fill="white"/>
<path d="M14.8217 11.2849L14.9733 11.3951L15.0285 11.3193" fill="white"/>
<path d="M14.8217 11.2849H15.0092V11.3787" fill="white"/>
<path d="M15.1101 11.4946L15.0522 11.3162L14.963 11.3452" fill="white"/>
<path d="M15.1101 11.4946L14.9584 11.3844L15.0135 11.3085" fill="white"/>
<path d="M14.8898 11.4945L15.0415 11.3843L14.9864 11.3085" fill="white"/>
<path d="M14.8898 11.4945L14.9477 11.3162L15.0369 11.3452" fill="white"/>
<path d="M14.4714 11.6643L14.4251 11.807L14.4964 11.8301" fill="white"/>
<path d="M14.4714 11.6643L14.5178 11.807L14.4465 11.8301" fill="white"/>
<path d="M14.6141 11.7679H14.4641V11.8429" fill="white"/>
<path d="M14.6141 11.7679L14.4928 11.8561L14.4487 11.7954" fill="white"/>
<path d="M14.3289 11.768L14.4502 11.8562L14.4943 11.7955" fill="white"/>
<path d="M14.3289 11.768H14.4789V11.843" fill="white"/>
<path d="M14.5596 11.9357L14.5132 11.793L14.4419 11.8162" fill="white"/>
<path d="M14.5596 11.9357L14.4382 11.8475L14.4823 11.7868" fill="white"/>
<path d="M14.3833 11.9357L14.5047 11.8475L14.4606 11.7868" fill="white"/>
<path d="M14.3833 11.9357L14.4297 11.793L14.501 11.8162" fill="white"/>
<path d="M14.7356 12.0714L14.7025 12.1733L14.7534 12.1899" fill="white"/>
<path d="M14.7356 12.0714L14.7687 12.1733L14.7178 12.1899" fill="white"/>
<path d="M14.8376 12.1454H14.7305V12.199" fill="white"/>
<path d="M14.8376 12.1454L14.751 12.2084L14.7195 12.1651" fill="white"/>
<path d="M14.6338 12.1454L14.7205 12.2084L14.752 12.1651" fill="white"/>
<path d="M14.6338 12.1454H14.7409V12.199" fill="white"/>
<path d="M14.7986 12.2653L14.7655 12.1634L14.7145 12.1799" fill="white"/>
<path d="M14.7986 12.2653L14.7119 12.2023L14.7434 12.1589" fill="white"/>
<path d="M14.6726 12.2652L14.7593 12.2022L14.7278 12.1589" fill="white"/>
<path d="M14.6726 12.2652L14.7057 12.1633L14.7567 12.1799" fill="white"/>
<path d="M16.5714 13.8482L16.5135 14.0265L16.6026 14.0555" fill="white"/>
<path d="M16.5714 13.8482L16.6294 14.0265L16.5402 14.0555" fill="white"/>
<path d="M16.7499 13.9777H16.5624V14.0715" fill="white"/>
<path d="M16.7499 13.9777L16.5982 14.0879L16.5431 14.0121" fill="white"/>
<path d="M16.3932 13.9778L16.5449 14.088L16.6 14.0121" fill="white"/>
<path d="M16.3932 13.9778H16.5807V14.0715" fill="white"/>
<path d="M16.6816 14.1874L16.6237 14.0091L16.5345 14.0381" fill="white"/>
<path d="M16.6816 14.1874L16.5299 14.0772L16.5851 14.0014" fill="white"/>
<path d="M16.4613 14.1874L16.613 14.0772L16.5579 14.0013" fill="white"/>
<path d="M16.4613 14.1874L16.5192 14.0091L16.6084 14.038" fill="white"/>
<path d="M17.0214 13.4214L16.975 13.5641L17.0463 13.5873" fill="white"/>
<path d="M17.0214 13.4214L17.0677 13.5641L16.9964 13.5873" fill="white"/>
<path d="M17.1641 13.5251H17.0141V13.6001" fill="white"/>
<path d="M17.1641 13.5251L17.0427 13.6133L16.9986 13.5526" fill="white"/>
<path d="M16.8788 13.5251L17.0001 13.6133L17.0442 13.5526" fill="white"/>
<path d="M16.8788 13.5251H17.0288V13.6001" fill="white"/>
<path d="M17.1095 13.6928L17.0631 13.5502L16.9918 13.5733" fill="white"/>
<path d="M17.1095 13.6928L16.9881 13.6046L17.0322 13.544" fill="white"/>
<path d="M16.9332 13.6928L17.0546 13.6046L17.0105 13.544" fill="white"/>
<path d="M16.9332 13.6928L16.9796 13.5502L17.0509 13.5733" fill="white"/>
<path d="M16.1571 13.2928L16.1108 13.4355L16.1821 13.4587" fill="white"/>
<path d="M16.1571 13.2928L16.2035 13.4355L16.1321 13.4587" fill="white"/>
<path d="M16.2998 13.3965H16.1498V13.4715" fill="white"/>
<path d="M16.2998 13.3965L16.1785 13.4847L16.1344 13.424" fill="white"/>
<path d="M16.0145 13.3965L16.1359 13.4847L16.18 13.424" fill="white"/>
<path d="M16.0145 13.3965H16.1645V13.4715" fill="white"/>
<path d="M16.2452 13.5642L16.1989 13.4216L16.1276 13.4447" fill="white"/>
<path d="M16.2452 13.5642L16.1239 13.476L16.168 13.4154" fill="white"/>
<path d="M16.069 13.5642L16.1903 13.476L16.1462 13.4154" fill="white"/>
<path d="M16.069 13.5642L16.1153 13.4216L16.1867 13.4447" fill="white"/>
<path d="M12.8927 13.0607L12.8232 13.2747L12.9302 13.3095" fill="white"/>
<path d="M12.8927 13.0607L12.9622 13.2747L12.8552 13.3095" fill="white"/>
<path d="M13.1068 13.2162H12.8818V13.3287" fill="white"/>
<path d="M13.1068 13.2162L12.9248 13.3484L12.8587 13.2574" fill="white"/>
<path d="M12.6788 13.2162L12.8609 13.3484L12.927 13.2574" fill="white"/>
<path d="M12.6788 13.2162H12.9038V13.3287" fill="white"/>
<path d="M13.025 13.4677L12.9555 13.2537L12.8485 13.2885" fill="white"/>
<path d="M13.025 13.4677L12.843 13.3355L12.9091 13.2444" fill="white"/>
<path d="M12.7606 13.4678L12.9426 13.3355L12.8765 13.2445" fill="white"/>
<path d="M12.7606 13.4678L12.8301 13.2538L12.9371 13.2886" fill="white"/>
<path d="M14.9999 14.5322L14.9767 14.6035L15.0124 14.6151" fill="white"/>
<path d="M14.9999 14.5322L15.0231 14.6035L14.9874 14.6151" fill="white"/>
<path d="M15.0713 14.584H14.9963V14.6215" fill="white"/>
<path d="M15.0713 14.584L15.0106 14.6281L14.9886 14.5977" fill="white"/>
<path d="M14.9286 14.584L14.9893 14.6281L15.0113 14.5977" fill="white"/>
<path d="M14.9286 14.584H15.0036V14.6215" fill="white"/>
<path d="M15.0441 14.6678L15.0209 14.5965L14.9852 14.608" fill="white"/>
<path d="M15.0441 14.6678L14.9834 14.6237L15.0054 14.5934" fill="white"/>
<path d="M14.9559 14.6678L15.0166 14.6238L14.9946 14.5934" fill="white"/>
<path d="M14.9559 14.6678L14.9791 14.5965L15.0148 14.6081" fill="white"/>
</g>
<defs>
<clipPath id="clip0_278_916">
<rect width="30" height="21" fill="white"/>
</clipPath>
</defs>
</svg>
