<svg width="30" height="24" viewBox="0 0 30 24" fill="none" xmlns="http://www.w3.org/2000/svg">
<path d="M28.0966 0.370515H20.7048C19.1186 0.370515 17.5678 0.826041 16.2336 1.6854L14.657 2.69661L13.0804 1.6854C11.7475 0.826206 10.195 0.369667 8.60918 0.370515H1.21739C0.645565 0.370515 0.183578 0.832503 0.183578 1.40433V19.7546C0.183578 20.3264 0.645565 20.7884 1.21739 20.7884H8.60918C10.1954 20.7884 11.7462 21.2439 13.0804 22.1033L14.5149 23.0273C14.5569 23.0531 14.6053 23.0693 14.6538 23.0693C14.7022 23.0693 14.7507 23.0564 14.7927 23.0273L16.2271 22.1033C17.5646 21.2439 19.1186 20.7884 20.7048 20.7884H28.0966C28.6685 20.7884 29.1304 20.3264 29.1304 19.7546V1.40433C29.1304 0.832503 28.6685 0.370515 28.0966 0.370515ZM8.60918 18.4623H2.50967V2.69661H8.60918C9.75284 2.69661 10.8642 3.02291 11.8237 3.63997L13.4003 4.65117L13.6232 4.79655V19.7223C12.0854 18.8952 10.3667 18.4623 8.60918 18.4623ZM26.8044 18.4623H20.7048C18.9473 18.4623 17.2286 18.8952 15.6908 19.7223V4.79655L15.9137 4.65117L17.4903 3.63997C18.4498 3.02291 19.5612 2.69661 20.7048 2.69661H26.8044V18.4623ZM10.9385 6.83188H4.9359C4.80991 6.83188 4.70653 6.94172 4.70653 7.07418V8.52799C4.70653 8.66044 4.80991 8.77029 4.9359 8.77029H10.9353C11.0613 8.77029 11.1646 8.66044 11.1646 8.52799V7.07418C11.1679 6.94172 11.0645 6.83188 10.9385 6.83188ZM18.1461 7.07418V8.52799C18.1461 8.66044 18.2495 8.77029 18.3755 8.77029H24.3749C24.5009 8.77029 24.6043 8.66044 24.6043 8.52799V7.07418C24.6043 6.94172 24.5009 6.83188 24.3749 6.83188H18.3755C18.2495 6.83188 18.1461 6.94172 18.1461 7.07418ZM10.9385 11.3548H4.9359C4.80991 11.3548 4.70653 11.4647 4.70653 11.5971V13.0509C4.70653 13.1834 4.80991 13.2932 4.9359 13.2932H10.9353C11.0613 13.2932 11.1646 13.1834 11.1646 13.0509V11.5971C11.1679 11.4647 11.0645 11.3548 10.9385 11.3548ZM24.3781 11.3548H18.3755C18.2495 11.3548 18.1461 11.4647 18.1461 11.5971V13.0509C18.1461 13.1834 18.2495 13.2932 18.3755 13.2932H24.3749C24.5009 13.2932 24.6043 13.1834 24.6043 13.0509V11.5971C24.6075 11.4647 24.5041 11.3548 24.3781 11.3548Z" fill="#3F3F3F"/>
</svg>
