<svg width="26" height="30" viewBox="0 0 26 30" fill="none" xmlns="http://www.w3.org/2000/svg">
<path d="M10.7005 15.6L8.02291 12.9233L6.56523 14.3805L10.7005 18.5144L18.971 10.2466L17.5133 8.78937L10.7005 15.6Z" fill="#1E0094"/>
<path d="M12.7681 29.459L6.38329 26.0558C4.56308 25.0877 3.04093 23.6424 1.98018 21.875C0.919439 20.1076 0.360151 18.0848 0.362342 16.0237V2.58848C0.362889 2.04045 0.580904 1.51503 0.968542 1.12752C1.35618 0.740007 1.88177 0.522062 2.42997 0.521515H23.1063C23.6545 0.522062 24.1801 0.740007 24.5677 1.12752C24.9554 1.51503 25.1734 2.04045 25.1739 2.58848V16.0237C25.1761 18.0848 24.6168 20.1076 23.5561 21.875C22.4954 23.6424 20.9732 25.0877 19.153 26.0558L12.7681 29.459ZM2.42997 2.58848V16.0237C2.42826 17.7102 2.88599 19.3653 3.75405 20.8113C4.6221 22.2574 5.8677 23.4398 7.35714 24.2317L12.7681 27.1161L18.1791 24.2327C19.6687 23.4407 20.9144 22.2581 21.7825 20.8119C22.6506 19.3657 23.1082 17.7104 23.1063 16.0237V2.58848H2.42997Z" fill="#1E0094"/>
</svg>
