<svg width="32" height="25" viewBox="0 0 32 25" fill="none" xmlns="http://www.w3.org/2000/svg">
<path d="M29.0918 14.0572H31.1594V24.392H29.0918V14.0572Z" fill="#1E0094"/>
<path d="M24.9565 9.92329H27.0241V24.392H24.9565V9.92329Z" fill="#1E0094"/>
<path d="M20.8212 18.1912H22.8889V24.392H20.8212V18.1912Z" fill="#1E0094"/>
<path d="M23.0698 5.78938L24.7084 4.48099C23.1848 2.57694 21.034 1.27593 18.6399 0.810063C17.3057 0.552338 15.9339 0.56001 14.6027 0.832641C13.2715 1.10527 12.0072 1.63751 10.8819 2.39894C9.75664 3.16036 8.79252 4.13604 8.04468 5.27018C7.29684 6.40433 6.77995 7.6747 6.52355 9.00868C4.57407 9.3606 2.83309 10.4446 1.65748 12.0386C0.481865 13.6325 -0.0393318 15.6156 0.200726 17.5814C0.475399 19.4918 1.43661 21.2368 2.90469 22.4902C4.37276 23.7437 6.24721 24.4197 8.17765 24.3921H16.686V22.3251H8.09908C6.74506 22.3462 5.42603 21.8948 4.369 21.0486C3.31196 20.2024 2.58303 19.0144 2.30764 17.6889C2.16976 16.9514 2.17912 16.194 2.33516 15.4602C2.4912 14.7264 2.79086 14.0307 3.21689 13.4131C3.64292 12.7954 4.18691 12.2682 4.81756 11.8615C5.44821 11.4549 6.15307 11.1769 6.89159 11.0436L8.2862 10.7904L8.50744 9.64323C8.81804 7.91964 9.65479 6.33445 10.9028 5.10535C12.1508 3.87626 13.7488 3.06355 15.4774 2.77885C16.5152 2.62484 17.5728 2.67045 18.5934 2.9132C20.3679 3.33826 21.946 4.35216 23.0698 5.78938V5.78938Z" fill="#1E0094"/>
</svg>
