<svg width="30" height="29" viewBox="0 0 30 29" fill="none" xmlns="http://www.w3.org/2000/svg">
<path d="M28.7281 14.484L15.4209 1.18655C15.3251 1.09054 15.2113 1.01438 15.086 0.962413C14.9607 0.910446 14.8264 0.883698 14.6908 0.883698C14.5552 0.883698 14.4208 0.910446 14.2956 0.962413C14.1703 1.01438 14.0565 1.09054 13.9607 1.18655L0.653509 14.484C0.265828 14.8717 0.0461426 15.3983 0.0461426 15.9475C0.0461426 17.0879 0.973346 18.0151 2.11377 18.0151H3.51589V27.5036C3.51589 28.0755 3.97787 28.5375 4.5497 28.5375H12.6232V21.3007H16.2415V28.5375H24.8319C25.4037 28.5375 25.8657 28.0755 25.8657 27.5036V18.0151H27.2678C27.817 18.0151 28.3436 17.7987 28.7313 17.4078C29.5357 16.6001 29.5357 15.2917 28.7281 14.484Z" fill="#3F3F3F"/>
</svg>
