<svg width="30" height="30" viewBox="0 0 30 30" fill="none" xmlns="http://www.w3.org/2000/svg">
<path d="M15.1739 0.236755C7.18122 0.236755 0.700485 6.71749 0.700485 14.7102C0.700485 22.7029 7.18122 29.1836 15.1739 29.1836C23.1666 29.1836 29.6473 22.7029 29.6473 14.7102C29.6473 6.71749 23.1666 0.236755 15.1739 0.236755ZM15.1739 26.7283C8.53811 26.7283 3.1558 21.346 3.1558 14.7102C3.1558 8.07438 8.53811 2.69207 15.1739 2.69207C21.8097 2.69207 27.192 8.07438 27.192 14.7102C27.192 21.346 21.8097 26.7283 15.1739 26.7283Z" fill="#3F3F3F"/>
<path d="M21.8743 14.2934L12.3083 7.34746C12.2316 7.29122 12.1407 7.25739 12.0459 7.24974C11.9511 7.24209 11.856 7.26092 11.7713 7.30413C11.6865 7.34734 11.6154 7.41324 11.566 7.49447C11.5165 7.57571 11.4905 7.6691 11.4909 7.76422V21.6562C11.4909 22.0794 11.9691 22.3185 12.3083 22.0729L21.8743 15.127C21.9404 15.0794 21.9942 15.0168 22.0313 14.9443C22.0684 14.8718 22.0877 14.7916 22.0877 14.7102C22.0877 14.6288 22.0684 14.5486 22.0313 14.4761C21.9942 14.4036 21.9404 14.341 21.8743 14.2934ZM13.5521 18.6226V10.7978L18.9377 14.7102L13.5521 18.6226Z" fill="#3F3F3F"/>
</svg>
