<svg width="28" height="29" viewBox="0 0 28 29" fill="none" xmlns="http://www.w3.org/2000/svg">
<path d="M21.4323 25.2207C21.5566 25.0729 21.68 24.9243 21.8023 24.7748C22.0843 24.4303 22.2379 23.9937 22.2383 23.5465M21.4323 25.2207L22.2383 23.5479C22.2383 23.5474 22.2383 23.5469 22.2383 23.5465M21.4323 25.2207H21.8805C21.9427 25.1457 22.0053 25.0698 22.0687 24.993C22.4017 24.5842 22.5833 24.0729 22.5829 23.5456V23.5452C22.5829 22.4017 21.7488 21.4228 20.6134 21.2659L20.6133 21.2659C15.8196 20.6025 12.4892 20.54 7.68112 21.2426L7.68105 21.2426C6.53172 21.4104 5.69726 22.4067 5.69726 23.5638C5.69726 24.0765 5.86465 24.5817 6.17829 24.9884L5.80031 25.2799L6.17829 24.9884C6.23888 25.067 6.29895 25.1446 6.35863 25.2214H6.79675C6.6806 25.0744 6.56547 24.9266 6.45138 24.7781L6.45027 24.7766C6.18432 24.4278 6.04078 24.001 6.04186 23.5624M21.4323 25.2207L7.73083 21.5829C6.75692 21.7251 6.04222 22.5708 6.04186 23.5624M22.2383 23.5465C22.241 23.0765 22.0738 22.6213 21.7673 22.2649C21.4606 21.9082 21.0351 21.6745 20.5695 21.607L20.5695 21.607L20.5662 21.6065C15.8004 20.9466 12.5028 20.8858 7.73093 21.5829L22.2383 23.5465ZM6.04186 23.5624C6.04186 23.5626 6.04186 23.5629 6.04186 23.5631H6.55877L6.04187 23.5616C6.04186 23.5619 6.04186 23.5621 6.04186 23.5624Z" fill="#3F3F3F" stroke="#3F3F3F" stroke-width="1.03382"/>
<path d="M14.1401 15.9163C14.751 15.9163 15.356 15.796 15.9204 15.5622C16.4848 15.3284 16.9977 14.9857 17.4297 14.5537C17.8617 14.1217 18.2043 13.6089 18.4381 13.0444C18.6719 12.48 18.7923 11.875 18.7923 11.2641C18.7923 10.6532 18.6719 10.0482 18.4381 9.4838C18.2043 8.91938 17.8617 8.40653 17.4297 7.97453C16.9977 7.54254 16.4848 7.19986 15.9204 6.96607C15.356 6.73227 14.751 6.61194 14.1401 6.61194C12.9063 6.61194 11.723 7.10208 10.8505 7.97453C9.97806 8.84698 9.48792 10.0303 9.48792 11.2641C9.48792 12.4979 9.97806 13.6812 10.8505 14.5537C11.723 15.4262 12.9063 15.9163 14.1401 15.9163ZM17.6733 14.7974C16.7363 15.7344 15.4653 16.2609 14.1401 16.2609C12.8149 16.2609 11.5439 15.7344 10.6068 14.7974C9.66976 13.8603 9.14331 12.5893 9.14331 11.2641C9.14331 9.93889 9.66976 8.66794 10.6068 7.73086C11.5439 6.79378 12.8149 6.26734 14.1401 6.26734C15.4653 6.26734 16.7363 6.79378 17.6733 7.73086C18.6104 8.66794 19.1369 9.93889 19.1369 11.2641C19.1369 12.5893 18.6104 13.8603 17.6733 14.7974Z" fill="#3F3F3F" stroke="#3F3F3F" stroke-width="1.03382"/>
<path d="M14.1401 27.6329C21.277 27.6329 27.0628 21.8471 27.0628 14.7102C27.0628 7.57326 21.277 1.78748 14.1401 1.78748C7.00317 1.78748 1.21739 7.57326 1.21739 14.7102C1.21739 21.8471 7.00317 27.6329 14.1401 27.6329ZM27.4074 14.7102C27.4074 22.0377 21.4676 27.9775 14.1401 27.9775C6.81255 27.9775 0.872781 22.0377 0.872781 14.7102C0.872781 7.38264 6.81255 1.44287 14.1401 1.44287C21.4676 1.44287 27.4074 7.38264 27.4074 14.7102Z" fill="#3F3F3F" stroke="#3F3F3F" stroke-width="1.03382"/>
</svg>
