<svg width="23" height="23" viewBox="0 0 23 23" fill="none" xmlns="http://www.w3.org/2000/svg">
<path d="M9.66659 19C11.7374 18.9996 13.7485 18.3063 15.3798 17.0307L20.5084 22.1593L22.1581 20.5097L17.0294 15.381C18.3058 13.7496 18.9994 11.738 18.9999 9.66668C18.9999 4.52051 14.8128 0.333344 9.66659 0.333344C4.52042 0.333344 0.333252 4.52051 0.333252 9.66668C0.333252 14.8128 4.52042 19 9.66659 19ZM9.66659 2.66668C13.5271 2.66668 16.6666 5.80618 16.6666 9.66668C16.6666 13.5272 13.5271 16.6667 9.66659 16.6667C5.80609 16.6667 2.66659 13.5272 2.66659 9.66668C2.66659 5.80618 5.80609 2.66668 9.66659 2.66668Z" fill="#3F3F3F"/>
</svg>
