<svg width="17" height="17" viewBox="0 0 17 17" fill="none" xmlns="http://www.w3.org/2000/svg">
<path d="M8.69082 1.30435C4.69447 1.30435 1.4541 4.54472 1.4541 8.54107C1.4541 12.5374 4.69447 15.7778 8.69082 15.7778C12.6872 15.7778 15.9275 12.5374 15.9275 8.54107C15.9275 4.54472 12.6872 1.30435 8.69082 1.30435ZM8.69082 14.5501C5.37291 14.5501 2.68176 11.859 2.68176 8.54107C2.68176 5.22316 5.37291 2.53201 8.69082 2.53201C12.0087 2.53201 14.6999 5.22316 14.6999 8.54107C14.6999 11.859 12.0087 14.5501 8.69082 14.5501Z" fill="#3F3F3F"/>
<path d="M12.0411 8.33269L7.25805 4.85971C7.21969 4.83159 7.17427 4.81467 7.12686 4.81085C7.07945 4.80702 7.03191 4.81643 6.98954 4.83804C6.94716 4.85964 6.91162 4.89259 6.88687 4.93321C6.86212 4.97383 6.84914 5.02052 6.84937 5.06809V12.0141C6.84937 12.2257 7.08844 12.3452 7.25805 12.2224L12.0411 8.74945C12.0741 8.72566 12.101 8.69435 12.1195 8.65812C12.1381 8.62189 12.1478 8.58177 12.1478 8.54107C12.1478 8.50037 12.1381 8.46025 12.1195 8.42402C12.101 8.38779 12.0741 8.35649 12.0411 8.33269ZM7.87995 10.4973V6.58489L10.5727 8.54107L7.87995 10.4973Z" fill="#3F3F3F"/>
</svg>
